<?xml version="1.0" standalone="no"?>
<!DOCTYPE svg PUBLIC "-//W3C//DTD SVG 1.1//EN" "http://www.w3.org/Graphics/SVG/1.1/DTD/svg11.dtd">

<svg width="1910.0" height="1560.0" viewBox="0 0 1910.0 1560.0" version="1.1" xmlns="http://www.w3.org/2000/svg" xmlns:xlink="http://www.w3.org/1999/xlink">
<!-- automatically generated by aafigure --><text x="591.0" y="126.89999999999999" font-family="sans-serif" font-size="14.0" fill="#000000" >
  BigchainDB API
</text>
<text x="1067.0" y="126.89999999999999" font-family="sans-serif" font-size="14.0" fill="#000000" >
  Tendermint P2P
</text>
<text x="1067.0" y="140.9" font-family="sans-serif" font-size="14.0" fill="#000000" >
  Communication/
</text>
<text x="1067.0" y="154.9" font-family="sans-serif" font-size="14.0" fill="#000000" >
  Public Key Exchange
</text>
<text x="843.0" y="238.90000000000003" font-family="sans-serif" font-size="14.0" fill="#000000" >
  NGINX Service
</text>
<text x="885.0" y="322.90000000000003" font-family="sans-serif" font-size="14.0" fill="#000000" >
  NGINX
</text>
<text x="885.0" y="336.90000000000003" font-family="sans-serif" font-size="14.0" fill="#000000" >
  Deployment
</text>
<text x="549.0" y="448.90000000000003" font-family="sans-serif" font-size="14.0" fill="#000000" >
  443
</text>
<text x="1179.0" y="448.90000000000003" font-family="sans-serif" font-size="14.0" fill="#000000" >
  26656/9986
</text>
<text x="913.0" y="462.90000000000003" font-family="sans-serif" font-size="14.0" fill="#000000" >
  Rate
</text>
<text x="899.0" y="476.90000000000003" font-family="sans-serif" font-size="14.0" fill="#000000" >
  Limiting
</text>
<text x="913.0" y="490.90000000000003" font-family="sans-serif" font-size="14.0" fill="#000000" >
  Logic
</text>
<text x="843.0" y="588.9" font-family="sans-serif" font-size="14.0" fill="#000000" >
  27017
</text>
<text x="423.0" y="630.9" font-family="sans-serif" font-size="14.0" fill="#000000" >
  HTTPS
</text>
<text x="1333.0" y="630.9" font-family="sans-serif" font-size="14.0" fill="#000000" >
  Tendermint
</text>
<text x="423.0" y="644.9" font-family="sans-serif" font-size="14.0" fill="#000000" >
  Termination
</text>
<text x="1207.0" y="644.9" font-family="sans-serif" font-size="14.0" fill="#000000" >
  9986
</text>
<text x="1333.0" y="644.9" font-family="sans-serif" font-size="14.0" fill="#000000" >
  Service
</text>
<text x="1543.0" y="644.9" font-family="sans-serif" font-size="14.0" fill="#000000" >
  26656
</text>
<text x="1165.0" y="728.9" font-family="sans-serif" font-size="14.0" fill="#000000" >
  NGINX
</text>
<text x="1557.0" y="728.9" font-family="sans-serif" font-size="14.0" fill="#000000" >
  Tendermint
</text>
<text x="1165.0" y="742.9" font-family="sans-serif" font-size="14.0" fill="#000000" >
  Deployment
</text>
<text x="1557.0" y="742.9" font-family="sans-serif" font-size="14.0" fill="#000000" >
  Stateful
</text>
<text x="1165.0" y="756.9" font-family="sans-serif" font-size="14.0" fill="#000000" >
  Pub-Key-Ex
</text>
<text x="1557.0" y="756.9" font-family="sans-serif" font-size="14.0" fill="#000000" >
  Set
</text>
<text x="269.0" y="798.9" font-family="sans-serif" font-size="14.0" fill="#000000" >
  POST
</text>
<text x="423.0" y="798.9" font-family="sans-serif" font-size="14.0" fill="#000000" >
  Analyze
</text>
<text x="647.0" y="798.9" font-family="sans-serif" font-size="14.0" fill="#000000" >
  GET
</text>
<text x="423.0" y="812.9" font-family="sans-serif" font-size="14.0" fill="#000000" >
  Request
</text>
<text x="1053.0" y="854.9" font-family="sans-serif" font-size="14.0" fill="#000000" >
  Bi+directional, communication between
</text>
<text x="1053.0" y="868.9" font-family="sans-serif" font-size="14.0" fill="#000000" >
  BigchainDB(APP) and Tendermint
</text>
<text x="1053.0" y="882.9" font-family="sans-serif" font-size="14.0" fill="#000000" >
  BFT consensus Engine
</text>
<text x="171.0" y="952.8999999999999" font-family="sans-serif" font-size="14.0" fill="#000000" >
  OpenResty
</text>
<text x="619.0" y="952.8999999999999" font-family="sans-serif" font-size="14.0" fill="#000000" >
  BigchainDB
</text>
<text x="1389.0" y="952.8999999999999" font-family="sans-serif" font-size="14.0" fill="#000000" >
  MongoDB
</text>
<text x="171.0" y="966.8999999999999" font-family="sans-serif" font-size="14.0" fill="#000000" >
  Service
</text>
<text x="619.0" y="966.8999999999999" font-family="sans-serif" font-size="14.0" fill="#000000" >
  Service
</text>
<text x="1389.0" y="966.8999999999999" font-family="sans-serif" font-size="14.0" fill="#000000" >
  Service
</text>
<text x="1403.0" y="1064.8999999999999" font-family="sans-serif" font-size="14.0" fill="#000000" >
  MongoDB
</text>
<text x="171.0" y="1078.8999999999999" font-family="sans-serif" font-size="14.0" fill="#000000" >
  OpenResty
</text>
<text x="647.0" y="1078.8999999999999" font-family="sans-serif" font-size="14.0" fill="#000000" >
  BigchainDB
</text>
<text x="1403.0" y="1078.8999999999999" font-family="sans-serif" font-size="14.0" fill="#000000" >
  Stateful
</text>
<text x="171.0" y="1092.8999999999999" font-family="sans-serif" font-size="14.0" fill="#000000" >
  Deployment
</text>
<text x="647.0" y="1092.8999999999999" font-family="sans-serif" font-size="14.0" fill="#000000" >
  Deployment
</text>
<text x="1403.0" y="1092.8999999999999" font-family="sans-serif" font-size="14.0" fill="#000000" >
  Set
</text>
<text x="199.0" y="1218.8999999999999" font-family="sans-serif" font-size="14.0" fill="#000000" >
  Auth
</text>
<text x="199.0" y="1232.8999999999999" font-family="sans-serif" font-size="14.0" fill="#000000" >
  Logic
</text>
<text x="1389.0" y="1232.8999999999999" font-family="sans-serif" font-size="14.0" fill="#000000" >
  MongoDB
</text>
<text x="1389.0" y="1246.8999999999999" font-family="sans-serif" font-size="14.0" fill="#000000" >
  Monitoring
</text>
<text x="1389.0" y="1260.8999999999999" font-family="sans-serif" font-size="14.0" fill="#000000" >
  Agent
</text>
<text x="87.0" y="1498.8999999999999" font-family="sans-serif" font-size="14.0" fill="#000000" >
  3Scale
</text>
<text x="1263.0" y="1498.8999999999999" font-family="sans-serif" font-size="14.0" fill="#000000" >
  MongoDB Cloud
</text>
<line x1="10.0" y1="24.0" x2="1900.0" y2="24.0" stroke="#000000" stroke-width="2.0" />
<line x1="10.0" y1="24.0" x2="10.0" y2="1368.0" stroke="#000000" stroke-width="2.0" />
<g>
    <line x1="850.0" y1="199.0" x2="846.5" y2="188.5" stroke="#000000" stroke-width="2.0" />
    <line x1="850.0" y1="199.0" x2="853.5" y2="188.5" stroke="#000000" stroke-width="2.0" />
    <line x1="850.0" y1="31.0" x2="850.0" y2="199.0" stroke="#000000" stroke-width="2.0" />
</g>
<g>
    <line x1="1032.0" y1="199.0" x2="1028.5" y2="188.5" stroke="#000000" stroke-width="2.0" />
    <line x1="1032.0" y1="199.0" x2="1035.5" y2="188.5" stroke="#000000" stroke-width="2.0" />
    <line x1="1032.0" y1="31.0" x2="1032.0" y2="199.0" stroke="#000000" stroke-width="2.0" />
</g>
<line x1="1900.0" y1="24.0" x2="1900.0" y2="1368.0" stroke="#000000" stroke-width="2.0" />
<line x1="836.0" y1="220.0" x2="1102.0" y2="220.0" stroke="#000000" stroke-width="2.0" />
<line x1="836.0" y1="220.0" x2="836.0" y2="248.0" stroke="#000000" stroke-width="2.0" />
<line x1="1102.0" y1="220.0" x2="1102.0" y2="248.0" stroke="#000000" stroke-width="2.0" />
<line x1="836.0" y1="248.0" x2="948.0" y2="248.0" stroke="#000000" stroke-width="2.0" />
<line x1="948.0" y1="248.0" x2="1102.0" y2="248.0" stroke="#000000" stroke-width="2.0" />
<g>
    <line x1="948.0" y1="283.0" x2="944.5" y2="272.5" stroke="#000000" stroke-width="2.0" />
    <line x1="948.0" y1="283.0" x2="951.5" y2="272.5" stroke="#000000" stroke-width="2.0" />
    <line x1="948.0" y1="248.0" x2="948.0" y2="283.0" stroke="#000000" stroke-width="2.0" />
</g>
<line x1="836.0" y1="304.0" x2="1102.0" y2="304.0" stroke="#000000" stroke-width="2.0" />
<line x1="836.0" y1="304.0" x2="836.0" y2="360.0" stroke="#000000" stroke-width="2.0" />
<line x1="1102.0" y1="304.0" x2="1102.0" y2="360.0" stroke="#000000" stroke-width="2.0" />
<line x1="836.0" y1="360.0" x2="948.0" y2="360.0" stroke="#000000" stroke-width="2.0" />
<line x1="948.0" y1="360.0" x2="1102.0" y2="360.0" stroke="#000000" stroke-width="2.0" />
<g>
    <line x1="948.0" y1="423.0" x2="944.5" y2="412.5" stroke="#000000" stroke-width="2.0" />
    <line x1="948.0" y1="423.0" x2="951.5" y2="412.5" stroke="#000000" stroke-width="2.0" />
    <line x1="948.0" y1="360.0" x2="948.0" y2="423.0" stroke="#000000" stroke-width="2.0" />
</g>
<line x1="892.0" y1="444.0" x2="1046.0" y2="444.0" stroke="#000000" stroke-width="2.0" />
<line x1="892.0" y1="444.0" x2="892.0" y2="472.0" stroke="#000000" stroke-width="2.0" />
<line x1="1046.0" y1="444.0" x2="1046.0" y2="472.0" stroke="#000000" stroke-width="2.0" />
<line x1="500.0" y1="472.0" x2="892.0" y2="472.0" stroke="#000000" stroke-width="2.0" />
<line x1="1046.0" y1="472.0" x2="1382.0" y2="472.0" stroke="#000000" stroke-width="2.0" />
<g>
    <line x1="500.0" y1="605.0" x2="496.5" y2="594.5" stroke="#000000" stroke-width="2.0" />
    <line x1="500.0" y1="605.0" x2="503.5" y2="594.5" stroke="#000000" stroke-width="2.0" />
    <line x1="500.0" y1="472.0" x2="500.0" y2="605.0" stroke="#000000" stroke-width="2.0" />
</g>
<line x1="892.0" y1="472.0" x2="892.0" y2="500.0" stroke="#000000" stroke-width="2.0" />
<line x1="1046.0" y1="472.0" x2="1046.0" y2="500.0" stroke="#000000" stroke-width="2.0" />
<g>
    <line x1="1382.0" y1="605.0" x2="1378.5" y2="594.5" stroke="#000000" stroke-width="2.0" />
    <line x1="1382.0" y1="605.0" x2="1385.5" y2="594.5" stroke="#000000" stroke-width="2.0" />
    <line x1="1382.0" y1="472.0" x2="1382.0" y2="605.0" stroke="#000000" stroke-width="2.0" />
</g>
<line x1="892.0" y1="500.0" x2="962.0" y2="500.0" stroke="#000000" stroke-width="2.0" />
<line x1="962.0" y1="500.0" x2="1046.0" y2="500.0" stroke="#000000" stroke-width="2.0" />
<line x1="962.0" y1="500.0" x2="962.0" y2="934.0" stroke="#000000" stroke-width="2.0" />
<line x1="416.0" y1="612.0" x2="612.0" y2="612.0" stroke="#000000" stroke-width="2.0" />
<line x1="1326.0" y1="612.0" x2="1508.0" y2="612.0" stroke="#000000" stroke-width="2.0" />
<line x1="416.0" y1="612.0" x2="416.0" y2="668.0" stroke="#000000" stroke-width="2.0" />
<line x1="612.0" y1="612.0" x2="612.0" y2="668.0" stroke="#000000" stroke-width="2.0" />
<g>
    <line x1="1305.0" y1="626.0" x2="1294.5" y2="629.5" stroke="#000000" stroke-width="2.0" />
    <line x1="1305.0" y1="626.0" x2="1294.5" y2="622.5" stroke="#000000" stroke-width="2.0" />
    <line x1="1032.0" y1="626.0" x2="1305.0" y2="626.0" stroke="#000000" stroke-width="2.0" />
</g>
<line x1="1326.0" y1="612.0" x2="1326.0" y2="654.0" stroke="#000000" stroke-width="2.0" />
<line x1="1508.0" y1="612.0" x2="1508.0" y2="668.0" stroke="#000000" stroke-width="2.0" />
<line x1="1032.0" y1="626.0" x2="1032.0" y2="934.0" stroke="#000000" stroke-width="2.0" />
<line x1="1214.0" y1="654.0" x2="1326.0" y2="654.0" stroke="#000000" stroke-width="2.0" />
<line x1="1326.0" y1="654.0" x2="1326.0" y2="668.0" stroke="#000000" stroke-width="2.0" />
<g>
    <line x1="1529.0" y1="654.0" x2="1539.5" y2="650.5" stroke="#000000" stroke-width="2.0" />
    <line x1="1529.0" y1="654.0" x2="1539.5" y2="657.5" stroke="#000000" stroke-width="2.0" />
    <line x1="1529.0" y1="654.0" x2="1606.0" y2="654.0" stroke="#000000" stroke-width="2.0" />
</g>
<line x1="416.0" y1="668.0" x2="500.0" y2="668.0" stroke="#000000" stroke-width="2.0" />
<line x1="500.0" y1="668.0" x2="612.0" y2="668.0" stroke="#000000" stroke-width="2.0" />
<g>
    <line x1="1214.0" y1="703.0" x2="1210.5" y2="692.5" stroke="#000000" stroke-width="2.0" />
    <line x1="1214.0" y1="703.0" x2="1217.5" y2="692.5" stroke="#000000" stroke-width="2.0" />
    <line x1="1214.0" y1="654.0" x2="1214.0" y2="703.0" stroke="#000000" stroke-width="2.0" />
</g>
<line x1="1326.0" y1="668.0" x2="1508.0" y2="668.0" stroke="#000000" stroke-width="2.0" />
<g>
    <line x1="1606.0" y1="703.0" x2="1602.5" y2="692.5" stroke="#000000" stroke-width="2.0" />
    <line x1="1606.0" y1="703.0" x2="1609.5" y2="692.5" stroke="#000000" stroke-width="2.0" />
    <line x1="1606.0" y1="654.0" x2="1606.0" y2="703.0" stroke="#000000" stroke-width="2.0" />
</g>
<g>
    <line x1="500.0" y1="766.0" x2="496.5" y2="776.5" stroke="#000000" stroke-width="2.0" />
    <line x1="500.0" y1="766.0" x2="503.5" y2="776.5" stroke="#000000" stroke-width="2.0" />
    <line x1="500.0" y1="668.0" x2="500.0" y2="766.0" stroke="#000000" stroke-width="2.0" />
</g>
<line x1="1158.0" y1="710.0" x2="1340.0" y2="710.0" stroke="#000000" stroke-width="2.0" />
<line x1="1550.0" y1="710.0" x2="1732.0" y2="710.0" stroke="#000000" stroke-width="2.0" />
<line x1="1158.0" y1="710.0" x2="1158.0" y2="766.0" stroke="#000000" stroke-width="2.0" />
<line x1="1340.0" y1="710.0" x2="1340.0" y2="766.0" stroke="#000000" stroke-width="2.0" />
<line x1="1550.0" y1="710.0" x2="1550.0" y2="766.0" stroke="#000000" stroke-width="2.0" />
<line x1="1732.0" y1="710.0" x2="1732.0" y2="766.0" stroke="#000000" stroke-width="2.0" />
<line x1="1158.0" y1="766.0" x2="1340.0" y2="766.0" stroke="#000000" stroke-width="2.0" />
<line x1="1550.0" y1="766.0" x2="1732.0" y2="766.0" stroke="#000000" stroke-width="2.0" />
<line x1="416.0" y1="780.0" x2="500.0" y2="780.0" stroke="#000000" stroke-width="2.0" />
<line x1="500.0" y1="780.0" x2="612.0" y2="780.0" stroke="#000000" stroke-width="2.0" />
<line x1="416.0" y1="780.0" x2="416.0" y2="822.0" stroke="#000000" stroke-width="2.0" />
<line x1="612.0" y1="780.0" x2="612.0" y2="822.0" stroke="#000000" stroke-width="2.0" />
<line x1="248.0" y1="822.0" x2="416.0" y2="822.0" stroke="#000000" stroke-width="2.0" />
<line x1="416.0" y1="822.0" x2="416.0" y2="836.0" stroke="#000000" stroke-width="2.0" />
<line x1="612.0" y1="822.0" x2="612.0" y2="836.0" stroke="#000000" stroke-width="2.0" />
<line x1="612.0" y1="822.0" x2="738.0" y2="822.0" stroke="#000000" stroke-width="2.0" />
<g>
    <line x1="248.0" y1="913.0" x2="244.5" y2="902.5" stroke="#000000" stroke-width="2.0" />
    <line x1="248.0" y1="913.0" x2="251.5" y2="902.5" stroke="#000000" stroke-width="2.0" />
    <line x1="248.0" y1="822.0" x2="248.0" y2="913.0" stroke="#000000" stroke-width="2.0" />
</g>
<line x1="416.0" y1="836.0" x2="612.0" y2="836.0" stroke="#000000" stroke-width="2.0" />
<g>
    <line x1="738.0" y1="913.0" x2="734.5" y2="902.5" stroke="#000000" stroke-width="2.0" />
    <line x1="738.0" y1="913.0" x2="741.5" y2="902.5" stroke="#000000" stroke-width="2.0" />
    <line x1="738.0" y1="822.0" x2="738.0" y2="913.0" stroke="#000000" stroke-width="2.0" />
</g>
<line x1="150.0" y1="934.0" x2="346.0" y2="934.0" stroke="#000000" stroke-width="2.0" />
<line x1="598.0" y1="934.0" x2="808.0" y2="934.0" stroke="#000000" stroke-width="2.0" />
<line x1="962.0" y1="934.0" x2="1032.0" y2="934.0" stroke="#000000" stroke-width="2.0" />
<g>
    <line x1="1319.0" y1="934.0" x2="1308.5" y2="937.5" stroke="#000000" stroke-width="2.0" />
    <line x1="1319.0" y1="934.0" x2="1308.5" y2="930.5" stroke="#000000" stroke-width="2.0" />
    <line x1="1032.0" y1="934.0" x2="1319.0" y2="934.0" stroke="#000000" stroke-width="2.0" />
</g>
<line x1="1354.0" y1="934.0" x2="1564.0" y2="934.0" stroke="#000000" stroke-width="2.0" />
<line x1="150.0" y1="934.0" x2="150.0" y2="990.0" stroke="#000000" stroke-width="2.0" />
<line x1="346.0" y1="934.0" x2="346.0" y2="990.0" stroke="#000000" stroke-width="2.0" />
<line x1="598.0" y1="934.0" x2="598.0" y2="990.0" stroke="#000000" stroke-width="2.0" />
<line x1="808.0" y1="934.0" x2="808.0" y2="990.0" stroke="#000000" stroke-width="2.0" />
<line x1="1032.0" y1="934.0" x2="1032.0" y2="1060.0" stroke="#000000" stroke-width="2.0" />
<line x1="1354.0" y1="934.0" x2="1354.0" y2="990.0" stroke="#000000" stroke-width="2.0" />
<line x1="1564.0" y1="934.0" x2="1564.0" y2="990.0" stroke="#000000" stroke-width="2.0" />
<g>
    <line x1="591.0" y1="976.0" x2="580.5" y2="979.5" stroke="#000000" stroke-width="2.0" />
    <line x1="591.0" y1="976.0" x2="580.5" y2="972.5" stroke="#000000" stroke-width="2.0" />
    <line x1="500.0" y1="976.0" x2="591.0" y2="976.0" stroke="#000000" stroke-width="2.0" />
</g>
<g>
    <line x1="1333.0" y1="976.0" x2="1322.5" y2="979.5" stroke="#000000" stroke-width="2.0" />
    <line x1="1333.0" y1="976.0" x2="1322.5" y2="972.5" stroke="#000000" stroke-width="2.0" />
    <line x1="1214.0" y1="976.0" x2="1333.0" y2="976.0" stroke="#000000" stroke-width="2.0" />
</g>
<line x1="150.0" y1="990.0" x2="248.0" y2="990.0" stroke="#000000" stroke-width="2.0" />
<line x1="248.0" y1="990.0" x2="346.0" y2="990.0" stroke="#000000" stroke-width="2.0" />
<line x1="500.0" y1="976.0" x2="500.0" y2="1228.0" stroke="#000000" stroke-width="2.0" />
<line x1="598.0" y1="990.0" x2="696.0" y2="990.0" stroke="#000000" stroke-width="2.0" />
<line x1="696.0" y1="990.0" x2="808.0" y2="990.0" stroke="#000000" stroke-width="2.0" />
<line x1="1214.0" y1="976.0" x2="1214.0" y2="1116.0" stroke="#000000" stroke-width="2.0" />
<line x1="1354.0" y1="990.0" x2="1452.0" y2="990.0" stroke="#000000" stroke-width="2.0" />
<line x1="1452.0" y1="990.0" x2="1564.0" y2="990.0" stroke="#000000" stroke-width="2.0" />
<g>
    <line x1="248.0" y1="1039.0" x2="244.5" y2="1028.5" stroke="#000000" stroke-width="2.0" />
    <line x1="248.0" y1="1039.0" x2="251.5" y2="1028.5" stroke="#000000" stroke-width="2.0" />
    <line x1="248.0" y1="990.0" x2="248.0" y2="1039.0" stroke="#000000" stroke-width="2.0" />
</g>
<g>
    <line x1="696.0" y1="1039.0" x2="692.5" y2="1028.5" stroke="#000000" stroke-width="2.0" />
    <line x1="696.0" y1="1039.0" x2="699.5" y2="1028.5" stroke="#000000" stroke-width="2.0" />
    <line x1="696.0" y1="990.0" x2="696.0" y2="1039.0" stroke="#000000" stroke-width="2.0" />
</g>
<g>
    <line x1="1466.0" y1="1039.0" x2="1462.5" y2="1028.5" stroke="#000000" stroke-width="2.0" />
    <line x1="1466.0" y1="1039.0" x2="1469.5" y2="1028.5" stroke="#000000" stroke-width="2.0" />
    <line x1="1466.0" y1="997.0" x2="1466.0" y2="1039.0" stroke="#000000" stroke-width="2.0" />
</g>
<line x1="164.0" y1="1046.0" x2="360.0" y2="1046.0" stroke="#000000" stroke-width="2.0" />
<line x1="626.0" y1="1046.0" x2="822.0" y2="1046.0" stroke="#000000" stroke-width="2.0" />
<line x1="1396.0" y1="1046.0" x2="1550.0" y2="1046.0" stroke="#000000" stroke-width="2.0" />
<line x1="164.0" y1="1046.0" x2="164.0" y2="1144.0" stroke="#000000" stroke-width="2.0" />
<line x1="360.0" y1="1046.0" x2="360.0" y2="1144.0" stroke="#000000" stroke-width="2.0" />
<line x1="626.0" y1="1046.0" x2="626.0" y2="1144.0" stroke="#000000" stroke-width="2.0" />
<line x1="822.0" y1="1046.0" x2="822.0" y2="1116.0" stroke="#000000" stroke-width="2.0" />
<g>
    <line x1="843.0" y1="1060.0" x2="853.5" y2="1056.5" stroke="#000000" stroke-width="2.0" />
    <line x1="843.0" y1="1060.0" x2="853.5" y2="1063.5" stroke="#000000" stroke-width="2.0" />
    <line x1="843.0" y1="1060.0" x2="1032.0" y2="1060.0" stroke="#000000" stroke-width="2.0" />
</g>
<line x1="1396.0" y1="1046.0" x2="1396.0" y2="1102.0" stroke="#000000" stroke-width="2.0" />
<line x1="1550.0" y1="1046.0" x2="1550.0" y2="1102.0" stroke="#000000" stroke-width="2.0" />
<line x1="1396.0" y1="1102.0" x2="1480.0" y2="1102.0" stroke="#000000" stroke-width="2.0" />
<line x1="1480.0" y1="1102.0" x2="1550.0" y2="1102.0" stroke="#000000" stroke-width="2.0" />
<line x1="822.0" y1="1116.0" x2="1214.0" y2="1116.0" stroke="#000000" stroke-width="2.0" />
<g>
    <line x1="1480.0" y1="1207.0" x2="1476.5" y2="1196.5" stroke="#000000" stroke-width="2.0" />
    <line x1="1480.0" y1="1207.0" x2="1483.5" y2="1196.5" stroke="#000000" stroke-width="2.0" />
    <line x1="1480.0" y1="1102.0" x2="1480.0" y2="1207.0" stroke="#000000" stroke-width="2.0" />
</g>
<line x1="822.0" y1="1116.0" x2="822.0" y2="1144.0" stroke="#000000" stroke-width="2.0" />
<line x1="164.0" y1="1144.0" x2="248.0" y2="1144.0" stroke="#000000" stroke-width="2.0" />
<line x1="248.0" y1="1144.0" x2="360.0" y2="1144.0" stroke="#000000" stroke-width="2.0" />
<line x1="626.0" y1="1144.0" x2="822.0" y2="1144.0" stroke="#000000" stroke-width="2.0" />
<g>
    <line x1="248.0" y1="1193.0" x2="244.5" y2="1182.5" stroke="#000000" stroke-width="2.0" />
    <line x1="248.0" y1="1193.0" x2="251.5" y2="1182.5" stroke="#000000" stroke-width="2.0" />
    <line x1="248.0" y1="1144.0" x2="248.0" y2="1193.0" stroke="#000000" stroke-width="2.0" />
</g>
<line x1="178.0" y1="1200.0" x2="346.0" y2="1200.0" stroke="#000000" stroke-width="2.0" />
<line x1="178.0" y1="1200.0" x2="178.0" y2="1270.0" stroke="#000000" stroke-width="2.0" />
<line x1="346.0" y1="1200.0" x2="346.0" y2="1270.0" stroke="#000000" stroke-width="2.0" />
<line x1="1382.0" y1="1214.0" x2="1564.0" y2="1214.0" stroke="#000000" stroke-width="2.0" />
<line x1="353.0" y1="1228.0" x2="500.0" y2="1228.0" stroke="#000000" stroke-width="2.0" />
<line x1="1382.0" y1="1214.0" x2="1382.0" y2="1270.0" stroke="#000000" stroke-width="2.0" />
<line x1="1564.0" y1="1214.0" x2="1564.0" y2="1270.0" stroke="#000000" stroke-width="2.0" />
<line x1="178.0" y1="1270.0" x2="234.0" y2="1270.0" stroke="#000000" stroke-width="2.0" />
<line x1="234.0" y1="1270.0" x2="346.0" y2="1270.0" stroke="#000000" stroke-width="2.0" />
<line x1="1382.0" y1="1270.0" x2="1466.0" y2="1270.0" stroke="#000000" stroke-width="2.0" />
<line x1="1466.0" y1="1270.0" x2="1564.0" y2="1270.0" stroke="#000000" stroke-width="2.0" />
<line x1="234.0" y1="1270.0" x2="234.0" y2="1368.0" stroke="#000000" stroke-width="2.0" />
<line x1="1466.0" y1="1270.0" x2="1466.0" y2="1368.0" stroke="#000000" stroke-width="2.0" />
<line x1="10.0" y1="1368.0" x2="234.0" y2="1368.0" stroke="#000000" stroke-width="2.0" />
<line x1="234.0" y1="1368.0" x2="1466.0" y2="1368.0" stroke="#000000" stroke-width="2.0" />
<line x1="1466.0" y1="1368.0" x2="1900.0" y2="1368.0" stroke="#000000" stroke-width="2.0" />
<g>
    <line x1="234.0" y1="1431.0" x2="230.5" y2="1420.5" stroke="#000000" stroke-width="2.0" />
    <line x1="234.0" y1="1431.0" x2="237.5" y2="1420.5" stroke="#000000" stroke-width="2.0" />
    <line x1="234.0" y1="1368.0" x2="234.0" y2="1431.0" stroke="#000000" stroke-width="2.0" />
</g>
<g>
    <line x1="1466.0" y1="1431.0" x2="1462.5" y2="1420.5" stroke="#000000" stroke-width="2.0" />
    <line x1="1466.0" y1="1431.0" x2="1469.5" y2="1420.5" stroke="#000000" stroke-width="2.0" />
    <line x1="1466.0" y1="1368.0" x2="1466.0" y2="1431.0" stroke="#000000" stroke-width="2.0" />
</g>
<line x1="10.0" y1="1438.0" x2="528.0" y2="1438.0" stroke="#000000" stroke-width="2.0" />
<line x1="1214.0" y1="1438.0" x2="1732.0" y2="1438.0" stroke="#000000" stroke-width="2.0" />
<line x1="10.0" y1="1438.0" x2="10.0" y2="1550.0" stroke="#000000" stroke-width="2.0" />
<line x1="528.0" y1="1438.0" x2="528.0" y2="1550.0" stroke="#000000" stroke-width="2.0" />
<line x1="1214.0" y1="1438.0" x2="1214.0" y2="1550.0" stroke="#000000" stroke-width="2.0" />
<line x1="1732.0" y1="1438.0" x2="1732.0" y2="1550.0" stroke="#000000" stroke-width="2.0" />
<line x1="10.0" y1="1550.0" x2="528.0" y2="1550.0" stroke="#000000" stroke-width="2.0" />
<line x1="1214.0" y1="1550.0" x2="1732.0" y2="1550.0" stroke="#000000" stroke-width="2.0" />
</svg>
